<?xml version="1.0" encoding="UTF-8"?>
<svg version="1.1" xmlns="http://www.w3.org/2000/svg" width="436" height="115">
<path d="M0 0 C143.88 0 287.76 0 436 0 C436 37.95 436 75.9 436 115 C292.12 115 148.24 115 0 115 C0 77.05 0 39.1 0 0 Z " fill="#FDFCFD" transform="translate(0,0)"/>
<path d="M0 0 C5.61 0 11.22 0 17 0 C18.12574714 3.68727339 19.25062235 7.37480901 20.375 11.0625 C20.69210938 12.10083984 21.00921875 13.13917969 21.3359375 14.20898438 C22.93642318 19.46057801 24.51552905 24.71438374 26 30 C28.44754745 23.77853956 30.3481935 17.50453965 32.125 11.0625 C32.6454237 9.17755073 33.16870299 7.29338672 33.6953125 5.41015625 C34.0358667 4.17471069 34.0358667 4.17471069 34.38330078 2.91430664 C35 1 35 1 36 0 C38.6986905 -0.07325436 41.36502556 -0.09222351 44.0625 -0.0625 C46.681875 -0.041875 49.30125 -0.02125 52 0 C54.97 9.9 57.94 19.8 61 30 C61.33 30 61.66 30 62 30 C62.34611328 28.63681641 62.34611328 28.63681641 62.69921875 27.24609375 C65.0959095 18.00983494 67.90475661 9.02779323 71 0 C76.28 0 81.56 0 87 0 C81.22816002 16.42834744 75.4434238 32.8198469 69 49 C63.72 49 58.44 49 53 49 C52.608125 47.80375 52.21625 46.6075 51.8125 45.375 C50.01426001 39.95446797 48.05186585 34.59599778 46.0859375 29.234375 C45.16074423 26.4787634 44.48387927 23.86026413 44 21 C42.13776926 23.79334611 41.29428084 25.83752741 40.30859375 29 C39.85129883 30.4540625 39.85129883 30.4540625 39.38476562 31.9375 C38.91586914 33.4534375 38.91586914 33.4534375 38.4375 35 C37.81122212 37.00000758 37.18492106 39.0000079 36.55859375 41 C36.28329834 41.886875 36.00800293 42.77375 35.72436523 43.6875 C35.16784616 45.46415949 34.58874718 47.23375846 34 49 C28.72 49 23.44 49 18 49 C14.35584394 40.10126537 11.03547956 31.08891451 7.71679688 22.06518555 C6.74053059 19.41176283 5.76101006 16.75955625 4.78125 14.10742188 C4.16126428 12.42455065 3.54146559 10.7416105 2.921875 9.05859375 C2.62819031 8.26392197 2.33450562 7.46925018 2.03192139 6.65049744 C0 1.11483183 0 1.11483183 0 0 Z " fill="#EC0E6F" transform="translate(184,25)"/>
<path d="M0 0 C-0.65419099 5.06998019 -2.8546409 9.41990777 -5 14 C-6.05058594 13.566875 -7.10117188 13.13375 -8.18359375 12.6875 C-18.73969093 8.3161262 -18.73969093 8.3161262 -30 8 C-30.66 8.66 -31.32 9.32 -32 10 C-31.83592336 12.54318798 -31.33510075 13.67708473 -29.49609375 15.44921875 C-25.29178365 18.06128621 -20.5408813 19.18043239 -15.81835938 20.57421875 C-9.38300124 22.58493215 -4.00708306 25.08649234 -0.0625 30.8125 C1.93192803 36.7957841 1.58219866 42.33369378 -0.828125 48.109375 C-3.73625468 52.80115756 -8.18476897 55.37048995 -13.2890625 57.140625 C-26.13700524 60.11593806 -39.55990657 58.16709333 -50.8125 51.25 C-51.864375 50.5075 -52.91625 49.765 -54 49 C-52.58707905 44.1725201 -50.57025846 40.2837641 -48 36 C-43.63466152 37.67897634 -39.54889661 39.72576555 -35.40234375 41.87890625 C-31.71743428 43.59853067 -28.49028414 44.16770997 -24.4375 44.25 C-23.29087891 44.28867188 -23.29087891 44.28867188 -22.12109375 44.328125 C-19.50276756 43.92308006 -18.65481299 43.00903813 -17 41 C-17.2887911 38.53541327 -17.2887911 38.53541327 -19 36 C-22.08730358 34.39103535 -25.36262725 33.44324443 -28.6875 32.4375 C-43.86753698 27.67924841 -43.86753698 27.67924841 -48.4375 21.9375 C-50.79608225 17.13793962 -50.95804127 12.20186473 -50 7 C-47.46664624 1.15151534 -42.83836658 -2.60014211 -37.09375 -5.15234375 C-24.64940282 -8.56196918 -11.24480702 -5.9295657 0 0 Z " fill="#EC0D6E" transform="translate(184,16)"/>
<path d="M0 0 C4.22984874 3.23988414 6.43191945 6.95870229 8 12 C8.36802793 14.79253011 8.35267262 17.5271605 8.29296875 20.33984375 C8.28872391 21.10680069 8.28447906 21.87375763 8.28010559 22.66395569 C8.2634507 25.08884332 8.22582553 27.51286798 8.1875 29.9375 C8.17243601 31.59178478 8.15875062 33.24608273 8.14648438 34.90039062 C8.11615509 38.93418534 8.05741395 42.9661386 8 47 C2.72 47 -2.56 47 -8 47 C-8.33 45.68 -8.66 44.36 -9 43 C-9.86625 43.66 -10.7325 44.32 -11.625 45 C-17.27025593 48.23245738 -23.71958173 47.75304775 -30 47 C-34.07439312 45.53739734 -36.75586455 42.66148415 -39 39 C-40.56840852 34.29477445 -40.54895539 30.47351184 -38.8125 25.8125 C-35.5107365 20.68907387 -31.81264381 18.52789494 -26 17 C-22.8690666 16.77196304 -19.76200428 16.80995844 -16.625 16.875 C-15.79355469 16.88402344 -14.96210938 16.89304687 -14.10546875 16.90234375 C-12.07018663 16.9257378 -10.03505436 16.96160275 -8 17 C-9.75454385 13.81765895 -9.75454385 13.81765895 -12 11 C-19.29904779 10.53912033 -26.01640536 10.80906835 -33 13 C-33.50615298 11.73160474 -34.00469099 10.46016898 -34.5 9.1875 C-34.7784375 8.47980469 -35.056875 7.77210937 -35.34375 7.04296875 C-36 5 -36 5 -36 2 C-24.39875137 -3.4303717 -12.05557432 -5.34134876 0 0 Z " fill="#EC0F6F" transform="translate(309,27)"/>
<path d="M0 0 C-1.22527029 4.05281712 -2.69880494 7.44360764 -5 11 C-5.54527344 10.79503906 -6.09054687 10.59007812 -6.65234375 10.37890625 C-12.15432765 8.41324021 -17.1764819 7.46218398 -23 7 C-23.33 8.32 -23.66 9.64 -24 11 C-20.78691854 12.4280362 -17.65667089 13.79502758 -14.296875 14.84375 C-8.76043949 16.59846726 -4.49636473 18.24622553 -0.9609375 23.0078125 C1.37648227 27.85368275 0.54816943 32.38594556 -1.125 37.3125 C-3.97033176 41.39080886 -7.32424989 43.44141663 -12 45 C-21.75642712 45.64131687 -31.19320567 45.89448235 -40 41 C-40.99 40.01 -41.98 39.02 -43 38 C-41.35 35.03 -39.7 32.06 -38 29 C-32.36407767 30.83495146 -32.36407767 30.83495146 -29.65625 32.0625 C-26.66125085 33.11955852 -24.3517933 33.20124803 -21.1875 33.125 C-20.21167969 33.10695312 -19.23585938 33.08890625 -18.23046875 33.0703125 C-17.49441406 33.04710937 -16.75835937 33.02390625 -16 33 C-15.89980798 31.06086825 -15.89980798 31.06086825 -17 29 C-19.58593083 27.8337959 -21.99940194 26.91250089 -24.6875 26.0625 C-30.48955827 24.20943134 -34.60796996 22.31107096 -39 18 C-40.64356886 13.06929341 -41.31301619 7.70120505 -38.9765625 2.89453125 C-30.08800643 -8.62130521 -11.36012939 -6.78452172 0 0 Z " fill="#EC0D6E" transform="translate(363,29)"/>
<path d="M0 0 C5.28 0 10.56 0 16 0 C16 4.29 16 8.58 16 13 C20.29 13 24.58 13 29 13 C29 16.63 29 20.26 29 24 C24.71 24 20.42 24 16 24 C16.33 31.59 16.66 39.18 17 47 C21.95 46.505 21.95 46.505 27 46 C28.59138085 50.17737474 29.21278058 53.53160785 29 58 C24.78626681 60.02194491 21.21416919 60.3281554 16.5625 60.375 C15.28503906 60.40335938 14.00757813 60.43171875 12.69140625 60.4609375 C8.29906323 59.91247562 6.30113628 58.93539888 3 56 C-0.95498042 49.75660324 -0.34708111 43.26001709 -0.1875 36.0625 C-0.17396484 34.90169922 -0.16042969 33.74089844 -0.14648438 32.54492188 C-0.1113141 29.69612948 -0.06209287 26.84831156 0 24 C-2.31 24 -4.62 24 -7 24 C-7 20.37 -7 16.74 -7 13 C-4.69 13 -2.38 13 0 13 C0 8.71 0 4.42 0 0 Z " fill="#EC0D6F" transform="translate(374,14)"/>
<path d="M0 0 C5.28 0 10.56 0 16 0 C16 16.17 16 32.34 16 49 C10.72 49 5.44 49 0 49 C0 32.83 0 16.66 0 0 Z " fill="#EB0A6D" transform="translate(410,25)"/>
<path d="M0 0 C4.29 0 8.58 0 13 0 C13 0.99 13 1.98 13 3 C10.03 3 7.06 3 4 3 C4 4.32 4 5.64 4 7 C6.64 7 9.28 7 12 7 C12 7.99 12 8.98 12 10 C9.36 10 6.72 10 4 10 C4 11.32 4 12.64 4 14 C7.63 14 11.26 14 15 14 C17.31 9.38 19.62 4.76 22 0 C23.32 0 24.64 0 26 0 C28.31 5.61 30.62 11.22 33 17 C31.35 16.67 29.7 16.34 28 16 C28 15.34 28 14.68 28 14 C25.03 14 22.06 14 19 14 C18.67 14.99 18.34 15.98 18 17 C12.06 17 6.12 17 0 17 C0 11.39 0 5.78 0 0 Z " fill="#305F9F" transform="translate(209,90)"/>
<path d="M0 0 C1.32 0 2.64 0 4 0 C6.31 5.61 8.62 11.22 11 17 C9.35 16.67 7.7 16.34 6 16 C6 15.34 6 14.68 6 14 C3.03 14 0.06 14 -3 14 C-3.33 14.99 -3.66 15.98 -4 17 C-4.99 17 -5.98 17 -7 17 C-6.37954537 12.76677156 -4.89476441 9.47709705 -2.9375 5.6875 C-2.38964844 4.61886719 -1.84179688 3.55023438 -1.27734375 2.44921875 C-0.64505859 1.23685547 -0.64505859 1.23685547 0 0 Z " fill="#134F96" transform="translate(323,90)"/>
<path d="M0 0 C1.32 0 2.64 0 4 0 C4 2.31 4 4.62 4 7 C6.64 7 9.28 7 12 7 C12 4.69 12 2.38 12 0 C13.32 0 14.64 0 16 0 C16 5.61 16 11.22 16 17 C14.68 17 13.36 17 12 17 C12 14.69 12 12.38 12 10 C9.36 10 6.72 10 4 10 C4 12.31 4 14.62 4 17 C2.68 17 1.36 17 0 17 C0 11.39 0 5.78 0 0 Z " fill="#164F95" transform="translate(271,90)"/>
<path d="M0 0 C1.32 0 2.64 0 4 0 C6.31 5.61 8.62 11.22 11 17 C9.35 16.67 7.7 16.34 6 16 C6 15.34 6 14.68 6 14 C3.03 14 0.06 14 -3 14 C-3.33 14.99 -3.66 15.98 -4 17 C-4.99 17 -5.98 17 -7 17 C-6.37954537 12.76677156 -4.89476441 9.47709705 -2.9375 5.6875 C-2.38964844 4.61886719 -1.84179688 3.55023438 -1.27734375 2.44921875 C-0.64505859 1.23685547 -0.64505859 1.23685547 0 0 Z " fill="#0E4B93" transform="translate(355,90)"/>
<path d="M0 0 C1.27617187 0.02320313 2.55234375 0.04640625 3.8671875 0.0703125 C5.78917969 0.09738281 5.78917969 0.09738281 7.75 0.125 C9.23113281 0.15980469 9.23113281 0.15980469 10.7421875 0.1953125 C10.6171875 3.4453125 10.6171875 3.4453125 9.7421875 7.1953125 C6.71243046 9.94323168 4.65288738 11.04960052 0.6171875 11.6953125 C-2.2578125 11.1953125 -2.2578125 11.1953125 -4.6953125 9.5078125 C-6.2578125 7.1953125 -6.2578125 7.1953125 -6.1328125 4.5703125 C-4.76981213 0.87074006 -3.97921985 0.23856234 0 0 Z " fill="#FEF4F8" transform="translate(290.2578125,52.8046875)"/>
<path d="M0 0 C4.29 0 8.58 0 13 0 C13 0.99 13 1.98 13 3 C10.03 3 7.06 3 4 3 C4 4.32 4 5.64 4 7 C6.64 7 9.28 7 12 7 C12 7.99 12 8.98 12 10 C9.36 10 6.72 10 4 10 C4 11.32 4 12.64 4 14 C6.97 14 9.94 14 13 14 C13 14.99 13 15.98 13 17 C8.71 17 4.42 17 0 17 C0 11.39 0 5.78 0 0 Z " fill="#144F96" transform="translate(165,90)"/>
<path d="M0 0 C1.32 0 2.64 0 4 0 C4 5.61 4 11.22 4 17 C2.68 17 1.36 17 0 17 C0 14.69 0 12.38 0 10 C-2.64 10 -5.28 10 -8 10 C-8 12.31 -8 14.62 -8 17 C-8.99 17 -9.98 17 -11 17 C-11 11.72 -11 6.44 -11 1 C-10.01 1 -9.02 1 -8 1 C-8 2.98 -8 4.96 -8 7 C-5.36 7 -2.72 7 0 7 C0 4.69 0 2.38 0 0 Z " fill="#003F8D" transform="translate(202,90)"/>
<path d="M0 0 C1.32 0 2.64 0 4 0 C4 2.31 4 4.62 4 7 C6.64 7 9.28 7 12 7 C12 5.02 12 3.04 12 1 C12.99 1 13.98 1 15 1 C15 6.28 15 11.56 15 17 C14.01 17 13.02 17 12 17 C12 14.69 12 12.38 12 10 C9.36 10 6.72 10 4 10 C4 12.31 4 14.62 4 17 C2.68 17 1.36 17 0 17 C0 11.39 0 5.78 0 0 Z " fill="#114A93" transform="translate(147,90)"/>
<path d="M0 0 C0.99 0.33 1.98 0.66 3 1 C2.67 1.99 2.34 2.98 2 4 C-0.31 4 -2.62 4 -5 4 C-5 4.66 -5 5.32 -5 6 C-4.43410156 6.15855469 -3.86820312 6.31710938 -3.28515625 6.48046875 C-1.07243284 7.18434035 0.94841871 7.90955868 3 9 C4.1875 11.5 4.1875 11.5 4 14 C3 15.75 3 15.75 1 17 C-2.56957573 17.8437179 -4.97234618 18.39525147 -8.4375 17.0625 C-9.2109375 16.5365625 -9.2109375 16.5365625 -10 16 C-9.67 15.01 -9.34 14.02 -9 13 C-6.03 13.33 -3.06 13.66 0 14 C-0.79191018 11.83762122 -0.79191018 11.83762122 -2.8125 11.359375 C-3.534375 11.15828125 -4.25625 10.9571875 -5 10.75 C-7.17578125 9.984375 -7.17578125 9.984375 -9 9 C-10.1875 6 -10.1875 6 -10 3 C-7.82361301 -1.08072561 -4.15615279 -0.29686806 0 0 Z " fill="#124E95" transform="translate(406,90)"/>
<path d="M0 0 C0.88751953 0.19529297 0.88751953 0.19529297 1.79296875 0.39453125 C1.79296875 1.71453125 1.79296875 3.03453125 1.79296875 4.39453125 C0.67921875 4.18828125 -0.43453125 3.98203125 -1.58203125 3.76953125 C-2.77828125 3.64578125 -3.97453125 3.52203125 -5.20703125 3.39453125 C-7.53981858 5.28560266 -7.53981858 5.28560266 -7.39453125 8.45703125 C-7.53890918 11.28286261 -7.53890918 11.28286261 -6.20703125 12.39453125 C-4.68775087 12.46633089 -3.16535643 12.47845132 -1.64453125 12.45703125 C-0.81824219 12.44800781 0.00804687 12.43898438 0.859375 12.4296875 C1.49746094 12.41808594 2.13554687 12.40648438 2.79296875 12.39453125 C2.79296875 13.38453125 2.79296875 14.37453125 2.79296875 15.39453125 C1.14202753 17.04547247 -0.75189062 16.68320818 -3.01953125 16.76953125 C-6.74861781 16.72151726 -7.81960884 16.69893457 -10.83203125 14.33203125 C-12.56767397 10.62406726 -12.85800807 8.44505367 -12.20703125 4.39453125 C-8.72826476 -0.9919459 -5.83931973 -1.01926136 0 0 Z " fill="#0F4C94" transform="translate(311.20703125,90.60546875)"/>
<path d="M0 0 C4.95 0 9.9 0 15 0 C15 1.32 15 2.64 15 4 C13.02 4 11.04 4 9 4 C9 8.29 9 12.58 9 17 C7.68 17 6.36 17 5 17 C5 12.71 5 8.42 5 4 C3.35 4 1.7 4 0 4 C0 2.68 0 1.36 0 0 Z " fill="#2D5F9E" transform="translate(130,90)"/>
<path d="M0 0 C2.9375 0.875 2.9375 0.875 4.9375 3.875 C4.75 6.9375 4.75 6.9375 3.9375 9.875 C0.9375 11.875 0.9375 11.875 -2.125 11.6875 C-5.0625 10.875 -5.0625 10.875 -7.0625 7.875 C-6.8550099 5.10846538 -6.35971306 3.34428377 -4.875 1 C-3.0625 -0.125 -3.0625 -0.125 0 0 Z " fill="#EC1773" transform="translate(23.0625,75.125)"/>
<path d="M0 0 C4.95 0 9.9 0 15 0 C15 0.99 15 1.98 15 3 C13.35 3 11.7 3 10 3 C10 7.62 10 12.24 10 17 C8.68 17 7.36 17 6 17 C6 12.71 6 8.42 6 4 C4.02 4 2.04 4 0 4 C0 2.68 0 1.36 0 0 Z " fill="#22589A" transform="translate(410,90)"/>
<path d="M0 0 C1.32 0 2.64 0 4 0 C7 4.07142857 7 4.07142857 7 7 C9.33524782 4.74259377 11.18705073 2.7194239 13 0 C14.32 0.33 15.64 0.66 17 1 C16.57847656 1.65226562 16.15695312 2.30453125 15.72265625 2.9765625 C11.55976014 9.50098463 11.55976014 9.50098463 10 17 C8.68 17 7.36 17 6 17 C5.90203125 16.41992188 5.8040625 15.83984375 5.703125 15.2421875 C4.67307452 9.8610617 3.22221079 6.40368808 0 2 C0 1.34 0 0.68 0 0 Z " fill="#145096" transform="translate(379,90)"/>
<path d="M0 0 C0.33 2.31 0.66 4.62 1 7 C-0.6875 8.5625 -0.6875 8.5625 -3 10 C-6.37036311 9.75925978 -7.58798021 9.41201979 -10 7 C-10.3125 4 -10.3125 4 -10 1 C-6.1496895 -1.56687367 -4.41430237 -0.83288724 0 0 Z " fill="#EC1271" transform="translate(43,93)"/>
<path d="M0 0 C2 2 2 2 2.25 5 C2 8 2 8 0 10 C-3.13704316 10.333728 -5.16554166 10.52849028 -7.875 8.8125 C-9.42229478 6.31963619 -9.50405716 4.88032665 -9 2 C-6.07557433 -1.24936186 -4.04996841 -1.38551551 0 0 Z " fill="#EC1372" transform="translate(64,10)"/>
<path d="M0 0 C2 2 2 2 2.375 4.9375 C2 8 2 8 0.3125 9.9375 C-2.63051139 11.28969442 -3.98528613 11.11068406 -7 10 C-9 7 -9 7 -8.75 3.875 C-8.37875 2.451875 -8.37875 2.451875 -8 1 C-5.23749964 -0.38125018 -3.05268901 -0.19079306 0 0 Z " fill="#EC1271" transform="translate(64,98)"/>
<path d="M0 0 C2.4375 0.75 2.4375 0.75 4.4375 2.75 C4.6875 5.75 4.6875 5.75 4.4375 8.75 C2.4375 10.75 2.4375 10.75 -0.5 11.0625 C-3.5625 10.75 -3.5625 10.75 -5.5 9.625 C-6.5625 7.75 -6.5625 7.75 -6.4375 4.6875 C-5.31039351 0.90364248 -4.04478927 -0.39461359 0 0 Z " fill="#EC1270" transform="translate(83.5625,15.25)"/>
<path d="M0 0 C2.9375 0.8125 2.9375 0.8125 4.9375 2.8125 C4.5625 6.4375 4.5625 6.4375 3.9375 9.8125 C-2.48798263 11.14609073 -2.48798263 11.14609073 -5 9.6875 C-6.42316991 7.17602369 -6.48924516 5.65746772 -6.0625 2.8125 C-4.28235296 -0.15441173 -3.48497618 -0.21336589 0 0 Z " fill="#EC1271" transform="translate(39.0625,15.1875)"/>
<path d="M0 0 C3 0.25 3 0.25 5 2.25 C5.375 5.1875 5.375 5.1875 5 8.25 C3.3125 10.1875 3.3125 10.1875 1 11.25 C-1.625 11.125 -1.625 11.125 -4 10.25 C-6 7.25 -6 7.25 -5.75 4.6875 C-4.63523671 1.06451932 -3.80176857 0.31681405 0 0 Z " fill="#EC106F" transform="translate(83,91.75)"/>
<path d="M0 0 C3.0625 0.3125 3.0625 0.3125 5 1.4375 C6.0625 3.3125 6.0625 3.3125 5.875 6.4375 C5.606875 7.38625 5.33875 8.335 5.0625 9.3125 C2.29999964 10.69375018 0.11518901 10.50329306 -2.9375 10.3125 C-4.9375 8.3125 -4.9375 8.3125 -5.1875 5.3125 C-4.84687504 1.2250005 -4.07761768 0.43378911 0 0 Z " fill="#EC1170" transform="translate(15.9375,53.6875)"/>
<path d="M0 0 C1 1 1 1 1.1875 4.4375 C1 8 1 8 -1 10 C-4 10.25 -4 10.25 -7 10 C-9 8 -9 8 -9.3125 5.0625 C-9 2 -9 2 -7.875 0.0625 C-5.04805609 -1.53943488 -3.05073223 -0.79584319 0 0 Z " fill="#EC0F6F" transform="translate(103,32)"/>
<path d="M0 0 C1.32 0 2.64 0 4 0 C4 4.62 4 9.24 4 14 C6.64 14 9.28 14 12 14 C12 14.99 12 15.98 12 17 C8.04 17 4.08 17 0 17 C0 11.39 0 5.78 0 0 Z " fill="#084A93" transform="translate(368,90)"/>
<path d="M0 0 C1.32 0 2.64 0 4 0 C4 4.62 4 9.24 4 14 C6.64 14 9.28 14 12 14 C12 14.99 12 15.98 12 17 C8.04 17 4.08 17 0 17 C0 11.39 0 5.78 0 0 Z " fill="#084791" transform="translate(244,90)"/>
<path d="M0 0 C3.0625 0.3125 3.0625 0.3125 5 1.5 C6.0625 3.3125 6.0625 3.3125 5.875 5.875 C5.0625 8.3125 5.0625 8.3125 3.0625 10.3125 C0.0625 10.5625 0.0625 10.5625 -2.9375 10.3125 C-4.9375 8.3125 -4.9375 8.3125 -5.1875 5.3125 C-4.84687504 1.2250005 -4.07761768 0.43378911 0 0 Z " fill="#EC0D6E" transform="translate(21.9375,31.6875)"/>
<path d="M0 0 C4.62 0 9.24 0 14 0 C14 0.99 14 1.98 14 3 C12.35 3 10.7 3 9 3 C9 7.29 9 11.58 9 16 C7.68 16 6.36 16 5 16 C5 11.38 5 6.76 5 2 C3.35 2 1.7 2 0 2 C0 1.34 0 0.68 0 0 Z " fill="#1B5297" transform="translate(334,91)"/>
<path d="M0 0 C3 0.25 3 0.25 5 2.25 C5.25 5.25 5.25 5.25 5 8.25 C3 10.25 3 10.25 0 10.5 C-3 10.25 -3 10.25 -5 8.25 C-5.25 5.25 -5.25 5.25 -5 2.25 C-3 0.25 -3 0.25 0 0 Z " fill="#EB076B" transform="translate(99,75.75)"/>
<path d="M0 0 C3 0.25 3 0.25 5 2.25 C5.25 5.25 5.25 5.25 5 8.25 C3 10.25 3 10.25 0 10.5 C-3 10.25 -3 10.25 -5 8.25 C-5.25 5.25 -5.25 5.25 -5 2.25 C-3 0.25 -3 0.25 0 0 Z " fill="#EB086B" transform="translate(105,53.75)"/>
<path d="M0 0 C4.95 0 9.9 0 15 0 C15 0.99 15 1.98 15 3 C13.02 3 11.04 3 9 3 C9 7.62 9 12.24 9 17 C8.01 17 7.02 17 6 17 C6 12.38 6 7.76 6 3 C4.02 3 2.04 3 0 3 C0 2.01 0 1.02 0 0 Z " fill="#144D95" transform="translate(254,90)"/>
<path d="M0 0 C3.49711001 1.69112071 4.15383792 5.13654547 5.390625 8.59765625 C5.65875 9.30857422 5.926875 10.01949219 6.203125 10.75195312 C6.8630381 12.50779334 7.50369141 14.27085022 8.140625 16.03515625 C5.703125 15.66015625 5.703125 15.66015625 3.140625 15.03515625 C2.810625 14.37515625 2.480625 13.71515625 2.140625 13.03515625 C-0.18094097 12.62786397 -2.5162537 12.29076948 -4.859375 12.03515625 C-4.529375 11.37515625 -4.199375 10.71515625 -3.859375 10.03515625 C-2.209375 10.03515625 -0.559375 10.03515625 1.140625 10.03515625 C0.480625 8.38515625 -0.179375 6.73515625 -0.859375 5.03515625 C-1.849375 5.69515625 -2.839375 6.35515625 -3.859375 7.03515625 C-2.81952561 0.05331036 -2.81952561 0.05331036 0 0 Z " fill="#05448F" transform="translate(233.859375,90.96484375)"/>
<path d="M0 0 C1.32 0 2.64 0 4 0 C4.99 2.64 5.98 5.28 7 8 C6.01 8.33 5.02 8.66 4 9 C4 9.66 4 10.32 4 11 C2.35 11 0.7 11 -1 11 C-1 10.34 -1 9.68 -1 9 C-1.99 9 -2.98 9 -4 9 C-2.94124926 5.59687262 -1.99097846 2.98646769 0 0 Z " fill="#1A5498" transform="translate(323,90)"/>
<path d="M0 0 C0.66 0 1.32 0 2 0 C2 1.65 2 3.3 2 5 C4.64 5 7.28 5 10 5 C10 5.99 10 6.98 10 8 C7.36 8 4.72 8 2 8 C2 9.32 2 10.64 2 12 C4.97 12 7.94 12 11 12 C11 12.66 11 13.32 11 14 C7.37 14 3.74 14 0 14 C0 9.38 0 4.76 0 0 Z " fill="#074892" transform="translate(211,92)"/>
<path d="M0 0 C1.32 0 2.64 0 4 0 C4.89316269 5.93609666 4.97040422 11.06975197 4 17 C2.68 17 1.36 17 0 17 C0 11.39 0 5.78 0 0 Z " fill="#064892" transform="translate(271,90)"/>
<path d="M0 0 C1.32 0 2.64 0 4 0 C4 5.61 4 11.22 4 17 C2.68 17 1.36 17 0 17 C-0.89316269 11.06390334 -0.97040422 5.93024803 0 0 Z " fill="#0C4F95" transform="translate(202,90)"/>
<path d="M0 0 C0.99 0 1.98 0 3 0 C3 5.28 3 10.56 3 16 C2.01 16 1.02 16 0 16 C0 13.69 0 11.38 0 9 C-2.64 9 -5.28 9 -8 9 C-8 8.34 -8 7.68 -8 7 C-4.535 6.505 -4.535 6.505 -1 6 C-0.67 4.02 -0.34 2.04 0 0 Z " fill="#00408D" transform="translate(159,91)"/>
<path d="M0 0 C1.32 0 2.64 0 4 0 C5.32 3.3 6.64 6.6 8 10 C7.34 10 6.68 10 6 10 C5.34 9.34 4.68 8.68 4 8 C4 8.99 4 9.98 4 11 C2.35 11 0.7 11 -1 11 C-0.67 9.35 -0.34 7.7 0 6 C-0.99 5.67 -1.98 5.34 -3 5 C-1.75 2.5 -1.75 2.5 0 0 Z " fill="#195398" transform="translate(355,90)"/>
<path d="M0 0 C2.625 0.375 2.625 0.375 5 1 C5.625 3.375 5.625 3.375 6 6 C5.34 6.66 4.68 7.32 4 8 C1.375 7.625 1.375 7.625 -1 7 C-1.625 4.625 -1.625 4.625 -2 2 C-1.34 1.34 -0.68 0.68 0 0 Z " fill="#ED1E78" transform="translate(83,55)"/>
<path d="M0 0 C2.625 0.375 2.625 0.375 5 1 C5.625 3.375 5.625 3.375 6 6 C5.34 6.66 4.68 7.32 4 8 C1.375 7.625 1.375 7.625 -1 7 C-1.625 4.625 -1.625 4.625 -2 2 C-1.34 1.34 -0.68 0.68 0 0 Z " fill="#EE2D80" transform="translate(71,76)"/>
<path d="M0 0 C2.625 0.375 2.625 0.375 5 1 C5.625 3.375 5.625 3.375 6 6 C5.34 6.66 4.68 7.32 4 8 C1.375 7.625 1.375 7.625 -1 7 C-1.625 4.625 -1.625 4.625 -2 2 C-1.34 1.34 -0.68 0.68 0 0 Z " fill="#EE2F81" transform="translate(34,55)"/>
<path d="M0 0 C2.625 0.375 2.625 0.375 5 1 C5.6875 2.8125 5.6875 2.8125 6 5 C4.8125 6.8125 4.8125 6.8125 3 8 C0.8125 7.6875 0.8125 7.6875 -1 7 C-1.625 4.625 -1.625 4.625 -2 2 C-1.34 1.34 -0.68 0.68 0 0 Z " fill="#ED1D76" transform="translate(80,43)"/>
<path d="M0 0 C2.625 0.375 2.625 0.375 5 1 C5.625 2.8125 5.625 2.8125 6 5 C5.01 6.485 5.01 6.485 4 8 C2.35 7.67 0.7 7.34 -1 7 C-1.625 4.625 -1.625 4.625 -2 2 C-1.34 1.34 -0.68 0.68 0 0 Z " fill="#EC1A74" transform="translate(80,67)"/>
<path d="M0 0 C1.32 0.33 2.64 0.66 4 1 C3.01 1.33 2.02 1.66 1 2 C1 2.99 1 3.98 1 5 C1.66 5.33 2.32 5.66 3 6 C3.625 8.5625 3.625 8.5625 4 11 C1.03 11 -1.94 11 -5 11 C-3.77472971 6.94718288 -2.30119506 3.55639236 0 0 Z " fill="#285D9D" transform="translate(231,90)"/>
<path d="M0 0 C0.99 0.66 1.98 1.32 3 2 C3 2.66 3 3.32 3 4 C3.99 4.33 4.98 4.66 6 5 C7.1875 8.0625 7.1875 8.0625 8 11 C6.35 10.67 4.7 10.34 3 10 C3 9.01 3 8.02 3 7 C0.36 7 -2.28 7 -5 7 C-4.67 6.34 -4.34 5.68 -4 5 C-2.35 5 -0.7 5 1 5 C0.67 3.35 0.34 1.7 0 0 Z " fill="#054490" transform="translate(358,96)"/>
<path d="M0 0 C1.67542976 0.28604898 3.34385343 0.61781233 5 1 C5 2.98 5 4.96 5 7 C2.625 7.625 2.625 7.625 0 8 C-0.66 7.34 -1.32 6.68 -2 6 C-1.44444444 1.44444444 -1.44444444 1.44444444 0 0 Z " fill="#ED1B76" transform="translate(71,34)"/>
<path d="M0 0 C0.625 2.375 0.625 2.375 1 5 C0.34 5.66 -0.32 6.32 -1 7 C-4.53571429 6.46428571 -4.53571429 6.46428571 -6 5 C-6.04063832 3.33382885 -6.042721 1.66611905 -6 0 C-3.50907189 -1.24546405 -2.58919267 -0.7767578 0 0 Z " fill="#EC1070" transform="translate(42,44)"/>
<path d="M0 0 C2.125 0.375 2.125 0.375 4 1 C4.625 3.375 4.625 3.375 5 6 C4.34 6.66 3.68 7.32 3 8 C0.875 7.625 0.875 7.625 -1 7 C-1.625 4.625 -1.625 4.625 -2 2 C-1.34 1.34 -0.68 0.68 0 0 Z " fill="#EC1472" transform="translate(47,76)"/>
<path d="M0 0 C2.125 0.375 2.125 0.375 4 1 C4.625 3.375 4.625 3.375 5 6 C4.34 6.66 3.68 7.32 3 8 C0.875 7.625 0.875 7.625 -1 7 C-1.625 4.625 -1.625 4.625 -2 2 C-1.34 1.34 -0.68 0.68 0 0 Z " fill="#EC1472" transform="translate(47,34)"/>
<path d="M0 0 C1.66611905 -0.042721 3.33382885 -0.04063832 5 0 C6 1 6 1 6.0625 3.5625 C6.041875 4.366875 6.02125 5.17125 6 6 C3.625 6.625 3.625 6.625 1 7 C0.34 6.34 -0.32 5.68 -1 5 C-0.625 2.375 -0.625 2.375 0 0 Z " fill="#EC0D6D" transform="translate(58,80)"/>
<path d="M0 0 C2.625 0.375 2.625 0.375 5 1 C5.042721 2.66611905 5.04063832 4.33382885 5 6 C4 7 4 7 1.4375 7.0625 C0.2309375 7.0315625 0.2309375 7.0315625 -1 7 C-1.625 4.625 -1.625 4.625 -2 2 C-1.34 1.34 -0.68 0.68 0 0 Z " fill="#EC106F" transform="translate(59,31)"/>
<path d="M0 0 C1.2065625 0.0309375 1.2065625 0.0309375 2.4375 0.0625 C3.0625 2.4375 3.0625 2.4375 3.4375 5.0625 C2.7775 5.7225 2.1175 6.3825 1.4375 7.0625 C-0.6875 6.6875 -0.6875 6.6875 -2.5625 6.0625 C-2.94468767 4.40635343 -3.27645102 2.73792976 -3.5625 1.0625 C-2.5625 0.0625 -2.5625 0.0625 0 0 Z " fill="#EC0D6E" transform="translate(39.5625,67.9375)"/>
<path d="M0 0 C0.99 0 1.98 0 3 0 C3 0.66 3 1.32 3 2 C4.65 2 6.3 2 8 2 C7.67 2.66 7.34 3.32 7 4 C6.195625 4.144375 5.39125 4.28875 4.5625 4.4375 C1.65559342 4.76502717 1.65559342 4.76502717 0 8 C-0.99 8 -1.98 8 -3 8 C-2.45276317 4.62537285 -1.9451 2.91765 0 0 Z " fill="#084590" transform="translate(319,99)"/>
<path d="M0 0 C1.953125 0.18359375 1.953125 0.18359375 4 1 C5.046875 2.84765625 5.046875 2.84765625 5.75 5.0625 C5.99234375 5.79597656 6.2346875 6.52945313 6.484375 7.28515625 C6.65453125 7.85105469 6.8246875 8.41695312 7 9 C4.625 8.6875 4.625 8.6875 2 8 C1.34 7.01 0.68 6.02 0 5 C-0.66 5.66 -1.32 6.32 -2 7 C-1.125 1.125 -1.125 1.125 0 0 Z " fill="#104E95" transform="translate(232,91)"/>
<path d="M0 0 C0.66 0.66 1.32 1.32 2 2 C3.98821313 2.39764263 5.98944339 2.73775349 8 3 C8 3.33 8 3.66 8 4 C5.36 4 2.72 4 0 4 C-0.33 4.99 -0.66 5.98 -1 7 C-2.65 7 -4.3 7 -6 7 C-4.77065985 3.31197956 -3.06140622 2.27643027 0 0 Z " fill="#20579A" transform="translate(228,100)"/>
<path d="M0 0 C1.65 0 3.3 0 5 0 C5.625 1.875 5.625 1.875 6 4 C5.34 4.66 4.68 5.32 4 6 C1.875 5.625 1.875 5.625 0 5 C0 3.35 0 1.7 0 0 Z " fill="#EC1A75" transform="translate(58,63)"/>
<path d="M0 0 C1.67542976 0.28604898 3.34385343 0.61781233 5 1 C4.67 2.32 4.34 3.64 4 5 C2.68 5.33 1.36 5.66 0 6 C-0.38218767 4.34385343 -0.71395102 2.67542976 -1 1 C-0.67 0.67 -0.34 0.34 0 0 Z " fill="#EC106E" transform="translate(52,56)"/>
<path d="M0 0 C2.0625 0.4375 2.0625 0.4375 4 1 C4 2.32 4 3.64 4 5 C2.68 5.33 1.36 5.66 0 6 C-0.38218767 4.34385343 -0.71395102 2.67542976 -1 1 C-0.67 0.67 -0.34 0.34 0 0 Z " fill="#EC0D6C" transform="translate(66,56)"/>
<path d="M0 0 C2.0625 0.4375 2.0625 0.4375 4 1 C4 2.32 4 3.64 4 5 C2.68 5.33 1.36 5.66 0 6 C-0.38218767 4.34385343 -0.71395102 2.67542976 -1 1 C-0.67 0.67 -0.34 0.34 0 0 Z " fill="#EB0A6B" transform="translate(59,49)"/>
<path d="M0 0 C1.32 0 2.64 0 4 0 C4.33 1.65 4.66 3.3 5 5 C3.0625 5.5625 3.0625 5.5625 1 6 C0 5 0 5 -0.0625 2.4375 C-0.041875 1.633125 -0.02125 0.82875 0 0 Z " fill="#EC0C6F" transform="translate(34,57)"/>
<path d="M0 0 C2.97 0.495 2.97 0.495 6 1 C6 2.32 6 3.64 6 5 C3.36 4.34 0.72 3.68 -2 3 C-1.34 2.01 -0.68 1.02 0 0 Z " fill="#01418E" transform="translate(307,90)"/>
<path d="M0 0 C3.37503669 1.1858237 5.64722731 2.27573689 8 5 C5.36 4.67 2.72 4.34 0 4 C0 2.68 0 1.36 0 0 Z " fill="#2A5C9D" transform="translate(397,103)"/>
<path d="M0 0 C0.66 0 1.32 0 2 0 C2.33 1.32 2.66 2.64 3 4 C0.29120665 5.35439668 -2.00933268 5.06501451 -5 5 C-3.625 3.5 -3.625 3.5 -2 2 C-1.34 2 -0.68 2 0 2 C0 1.34 0 0.68 0 0 Z " fill="#074690" transform="translate(406,102)"/>
<path d="M0 0 C0.66 0.33 1.32 0.66 2 1 C2.625 3.5625 2.625 3.5625 3 6 C1.35 6 -0.3 6 -2 6 C-1.34 4.02 -0.68 2.04 0 0 Z " fill="#DAE3ED" transform="translate(232,95)"/>
<path d="M0 0 C1.5 1.3125 1.5 1.3125 3 3 C3 3.99 3 4.98 3 6 C1.35 6 -0.3 6 -2 6 C-1.34 4.02 -0.68 2.04 0 0 Z " fill="#DDE5EF" transform="translate(356,95)"/>
<path d="M0 0 C2.31 0.33 4.62 0.66 7 1 C6.67 1.99 6.34 2.98 6 4 C3.69 3.67 1.38 3.34 -1 3 C-0.67 2.01 -0.34 1.02 0 0 Z " fill="#0B4691" transform="translate(402,90)"/>
<path d="M0 0 C1.32 0 2.64 0 4 0 C4.99 1.98 5.98 3.96 7 6 C6.34 6 5.68 6 5 6 C5 5.34 5 4.68 5 4 C4.01 4.33 3.02 4.66 2 5 C1.34 3.35 0.68 1.7 0 0 Z " fill="#255B9C" transform="translate(379,90)"/>
<path d="M0 0 C1.32 0 2.64 0 4 0 C4 1.32 4 2.64 4 4 C2.35 4.33 0.7 4.66 -1 5 C-0.67 3.35 -0.34 1.7 0 0 Z " fill="#EB0B6D" transform="translate(71,78)"/>
<path d="M0 0 C0.66 0.33 1.32 0.66 2 1 C2.625 3.5625 2.625 3.5625 3 6 C1.35 6 -0.3 6 -2 6 C-1.34 4.02 -0.68 2.04 0 0 Z " fill="#DFE6EF" transform="translate(324,95)"/>
<path d="M0 0 C0.99 0.33 1.98 0.66 3 1 C3.33 2.65 3.66 4.3 4 6 C3.01 6.495 3.01 6.495 2 7 C2 6.01 2 5.02 2 4 C1.01 3.67 0.02 3.34 -1 3 C-0.67 2.01 -0.34 1.02 0 0 Z " fill="#1B5397" transform="translate(406,98)"/>
<path d="M0 0 C0.99 0.33 1.98 0.66 3 1 C1.515 3.475 1.515 3.475 0 6 C-0.66 4.68 -1.32 3.36 -2 2 C-1.34 1.34 -0.68 0.68 0 0 Z " fill="#135096" transform="translate(304,90)"/>
<path d="M0 0 C0.94875 0.04125 1.8975 0.0825 2.875 0.125 C2.2975 0.351875 1.72 0.57875 1.125 0.8125 C-1.6913661 2.45538023 -3.20577114 4.52033227 -5.125 7.125 C-5.25 4.75 -5.25 4.75 -5.125 2.125 C-3.125 0.125 -3.125 0.125 0 0 Z " fill="#EB0569" transform="translate(16.125,53.875)"/>
</svg>
